<?xml version="1.0" encoding="utf-8"?>
<!-- Generator: Adobe Illustrator 18.1.1, SVG Export Plug-In . SVG Version: 6.00 Build 0)  -->
<svg version="1.1" id="Layer_1" xmlns="http://www.w3.org/2000/svg" xmlns:xlink="http://www.w3.org/1999/xlink" x="0px" y="0px"
	 viewBox="31.1 80.2 450.6 450.7" enable-background="new 31.1 80.2 450.6 450.7" xml:space="preserve">
<path d="M412.4,80.2H106.1c-39.8,0-74.9,29-74.9,68.8v306.5c0,39.8,35.1,75.5,74.9,75.5h189.7c-0.3-59.1,0.1-124.8-0.2-182
	c-12.1-0.1-24.2-0.8-36.3-1c0-20.2,0-40.8,0-61c12.1-0.1,24.2-0.2,36.3-0.3c0.3-19.7-0.3-39.4,0.4-59.1c1.2-15.5,7.1-31.3,18.7-42
	c14.1-13.3,34-17.9,52.9-18.5c19.9-0.2,39.9-0.1,59.8-0.1c0.1,21,0.1,42.1,0,63.1c-12.9,0-25.8,0-38.7,0c-8.2-0.5-16.5,5.7-18,13.8
	c-0.2,14.1-0.1,28.2-0.1,42.2c18.9,0.1,37.8,0,56.8,0c-1.4,20.3-3.9,40.7-6.9,60.8c-16.7,0.1-33.5,1.6-50.1,1.8
	c-0.1,57.1,0,122.9-0.1,182h42.2c39.8,0,69.3-35.7,69.3-75.5V149C481.8,109.2,452.2,80.2,412.4,80.2z"/>
</svg>
