<?xml version="1.0" encoding="utf-8"?>
<!-- Generator: Adobe Illustrator 18.1.1, SVG Export Plug-In . SVG Version: 6.00 Build 0)  -->
<svg version="1.1" id="Layer_1" xmlns="http://www.w3.org/2000/svg" xmlns:xlink="http://www.w3.org/1999/xlink" x="0px" y="0px"
	 viewBox="-222 270.7 494.5 489.9" enable-background="new -222 270.7 494.5 489.9" xml:space="preserve">
<path d="M177.6,270.7h-300.2c-52.3,0-94.8,42.5-94.8,94.8v99.8v200.5c0,52.3,42.5,94.8,94.8,94.8h300.2c52.3,0,94.8-42.5,94.8-94.8
	V465.3v-99.8C272.5,313.2,230,270.7,177.6,270.7z M205.3,328h10.9v10.9V411h-83v-83H205.3z M-42.6,465.3
	c15.8-21.7,41.5-35.6,70.1-35.6s54.3,13.8,70.1,35.6c9.9,13.8,16.8,31.6,16.8,50.4c0,47.4-38.5,85.9-85.9,85.9
	c-47.4,0-85.9-38.5-85.9-85.9C-58.4,496.9-52.5,480.1-42.6,465.3z M225,665.8c0,25.7-20.7,47.4-47.4,47.4h-300.2
	c-25.7,0-47.4-20.7-47.4-47.4V465.3h73.1c-5.9,15.8-9.9,32.6-9.9,50.4c0,74.1,60.2,134.3,134.3,134.3s134.3-60.2,134.3-134.3
	c0-17.8-4-34.6-9.9-50.4H225V665.8z"/>
</svg>
